<?xml version="1.0" encoding="UTF-8"?>
<svg xmlns="http://www.w3.org/2000/svg" version="1.1" viewBox="0 0 128 128">
  <!-- Generator: Adobe Illustrator 29.1.0, SVG Export Plug-In . SVG Version: 2.1.0 Build 142)  -->
  <defs>
    <style>
      .st0 {
        fill: #3a8346;
      }

      .st0, .st1, .st2, .st3, .st4, .st5, .st6, .st7, .st8, .st9 {
        stroke: #231f20;
      }

      .st0, .st1, .st2, .st3, .st4, .st5, .st6, .st7, .st9 {
        stroke-linejoin: round;
      }

      .st0, .st2, .st3, .st4, .st5, .st6, .st8, .st9 {
        stroke-width: 2px;
      }

      .st10, .st11 {
        fill: #231f20;
      }

      .st1 {
        fill: none;
        stroke-linecap: round;
        stroke-width: 11px;
      }

      .st11 {
        font-family: MyriadPro-Regular, 'Myriad Pro';
        font-size: 140px;
      }

      .st2 {
        fill: #236130;
      }

      .st3 {
        fill: #bd3c43;
      }

      .st4 {
        fill: #053f18;
      }

      .st5 {
        fill: #3a429a;
      }

      .st6 {
        fill: #555aa8;
      }

      .st12 {
        display: none;
      }

      .st7 {
        fill: #8a8c8e;
        stroke-width: 7px;
      }

      .st8 {
        fill: #242567;
        stroke-linejoin: bevel;
      }

      .st9 {
        fill: #952c32;
      }
    </style>
  </defs>
  <g id="Layer_1" class="st12">
    <circle class="st7" cx="47.83" cy="47.51" r="40.53"/>
    <rect class="st9" x="28.33" y="39.83" width="13" height="32.68"/>
    <polygon class="st3" points="41.33 39.83 28.33 39.83 31.39 35.53 44.39 35.53 41.33 39.83"/>
    <polygon class="st0" points="54.33 22.51 41.33 22.51 44.39 18.2 57.39 18.2 54.33 22.51"/>
    <rect class="st2" x="41.33" y="22.51" width="13" height="50"/>
    <polygon class="st4" points="54.33 72.46 57.39 68.15 57.39 18.2 54.33 22.51 54.33 72.46"/>
    <polygon class="st6" points="67.33 52.07 54.33 52.07 57.39 47.77 70.39 47.77 67.33 52.07"/>
    <rect class="st5" x="54.33" y="52.07" width="13" height="20.44"/>
    <polygon class="st8" points="67.33 72.46 70.39 68.15 70.39 47.77 67.33 52.07 67.33 72.46"/>
    <path class="st10" d="M120.07,113.15l-40.33-40.33s-.1-.09-.15-.14c-2.9,3.66-6.42,6.8-10.4,9.27.2.27.41.52.65.77l40.33,40.33c1.37,1.37,3.16,2.05,4.95,2.05s3.58-.68,4.95-2.05c2.73-2.73,2.73-7.17,0-9.9Z"/>
    <text class="st11" transform="translate(-43.53 64.49)"><tspan x="0" y="0">?</tspan></text>
  </g>
  <g id="Layer_2">
    <path class="st1" d="M22.64,36.6c.63-2.96,3.72-15.62,16.98-23.69,17.89-10.89,38.27-3.68,40.92-2.7,16.11,5.98,22.59,18.31,23.77,20.69,4.84,9.69,7.41,25.47-1.7,35.24-7.77,8.33-25.34,13.69-32.43,14.55-.83.1-3.1.33-5.43,1.65-4.73,2.67-6.11,7.75-6.45,9-.57,2.08-.55,3.88-.51,7.5.02,2.3.19,4.22.34,5.55"/>
    <g>
      <rect class="st9" x="42.97" y="33.93" width="13" height="32.68"/>
      <polygon class="st3" points="55.97 33.93 42.97 33.93 46.03 29.63 59.03 29.63 55.97 33.93"/>
      <polygon class="st0" points="68.97 23.91 55.97 23.91 59.03 19.61 72.03 19.61 68.97 23.91"/>
      <polygon class="st4" points="72.03 66.61 72.03 19.61 68.97 23.91 68.97 66.61 72.03 66.61"/>
      <rect class="st2" x="55.97" y="23.91" width="13" height="42.7"/>
      <polygon class="st6" points="81.97 46.17 68.97 46.17 72.03 41.87 85.03 41.87 81.97 46.17"/>
      <rect class="st5" x="68.97" y="46.17" width="13" height="20.44"/>
      <polygon class="st8" points="81.97 66.56 85.03 62.25 85.03 41.87 81.97 46.17 81.97 66.56"/>
    </g>
    <circle class="st10" cx="58.93" cy="119.93" r="7"/>
  </g>
</svg>